<svg xmlns="http://www.w3.org/2000/svg" viewBox="0 0 512 512" width="512" height="512">
<!-- EL ICONO ES LA PIEZA: dos peces linterna con el trazado exacto de
     bichos/pezlinterna.js —PANZA, DENTRO y FOTO_T, los mismos números—,
     y el agua es el degradado de ABISMO.agua.tono.

     DOS Y EN SENTIDOS CONTRARIOS, el segundo girado 180° sobre el centro,
     con el eje doblado sobre un arco de radio 264 cuyo centro cae 183 por
     debajo del medio: así cada uno abraza el centro por su lado y la
     pareja insinúa un yin-yang sin dejar de ser dos peces. El cuerpo NO
     se ensancha para doblarlo: se dobla el eje, que es lo que hace el
     pez de verdad al nadar.

     Los dos colores son de la paleta de escena.js —el verde del pez
     linterna y el AZUL de la casa—: distintos de un vistazo y de la misma
     familia fría. Las hileras de fotóforos quedan por el canto de dentro,
     así que la luz se junta en el medio, que es lo único que se lee a
     48 px.

     EL LÍMITE ES EL CÍRCULO Y NO EL CUADRADO: Android recorta el icono a
     círculo, y la ficha del «acerca de» también. Los peces llegan a
     235 px de los 256 del radio, así que el recorte no les quita ni el
     morro ni la cola.

     Va en SVG y no en PNG porque la pieza no tiene binarios: sin build y
     sin dependencias, un icono que se lee en texto encaja y escala solo. -->
<defs>
  <linearGradient id="agua" x1="0" y1="0" x2="0" y2="1">
    <stop offset="0.00" stop-color="rgb(6,18,29)"/>
    <stop offset="0.30" stop-color="rgb(3,10,17)"/>
    <stop offset="0.78" stop-color="rgb(1,3,7)"/>
    <stop offset="1.00" stop-color="rgb(0,0,2)"/>
  </linearGradient>
  <linearGradient id="cuerpoA" x1="0" y1="0" x2="1" y2="0">
    <stop offset="0.00" stop-color="#4dff8f" stop-opacity="0.72"/>
    <stop offset="0.55" stop-color="#0a6b46" stop-opacity="0.52"/>
    <stop offset="1.00" stop-color="#0a6b46" stop-opacity="0.14"/>
  </linearGradient>
  <linearGradient id="cuerpoB" x1="1" y1="0" x2="0" y2="0">
    <stop offset="0.00" stop-color="#6096ff" stop-opacity="0.72"/>
    <stop offset="0.55" stop-color="#16408c" stop-opacity="0.52"/>
    <stop offset="1.00" stop-color="#16408c" stop-opacity="0.14"/>
  </linearGradient>
  <linearGradient id="cantoA" x1="0" y1="0" x2="1" y2="0">
    <stop offset="0.00" stop-color="#eafff2"/><stop offset="1.00" stop-color="#2f9e63"/>
  </linearGradient>
  <linearGradient id="cantoB" x1="1" y1="0" x2="0" y2="0">
    <stop offset="0.00" stop-color="#eaf2ff"/><stop offset="1.00" stop-color="#3a6bc4"/>
  </linearGradient>
  <radialGradient id="focoA">
    <stop offset="0.00" stop-color="#4dff8f" stop-opacity="0.85"/>
    <stop offset="0.30" stop-color="#4dff8f" stop-opacity="0.34"/>
    <stop offset="1.00" stop-color="#4dff8f" stop-opacity="0"/>
  </radialGradient>
  <radialGradient id="focoB">
    <stop offset="0.00" stop-color="#9dc0ff" stop-opacity="0.85"/>
    <stop offset="0.30" stop-color="#6096ff" stop-opacity="0.34"/>
    <stop offset="1.00" stop-color="#6096ff" stop-opacity="0"/>
  </radialGradient>
  <radialGradient id="mota">
    <stop offset="0.00" stop-color="#cfefff" stop-opacity="0.95"/>
    <stop offset="0.28" stop-color="#7fc8f0" stop-opacity="0.35"/>
    <stop offset="1.00" stop-color="#4f9fd0" stop-opacity="0"/>
  </radialGradient>
  <radialGradient id="ascua">
    <stop offset="0.00" stop-color="#ffd0b0" stop-opacity="0.95"/>
    <stop offset="0.30" stop-color="#ff6a3a" stop-opacity="0.40"/>
    <stop offset="1.00" stop-color="#c03010" stop-opacity="0"/>
  </radialGradient>
</defs>
<rect width="512" height="512" fill="url(#agua)"/>
<g>
<circle cx="298.9" cy="360.1" r="7.4" fill="url(#mota)"/>
<circle cx="298.9" cy="360.1" r="1.3" fill="#e8f6ff" fill-opacity="0.85"/>
<circle cx="211.4" cy="127.7" r="10.6" fill="url(#mota)"/>
<circle cx="211.4" cy="127.7" r="1.9" fill="#e8f6ff" fill-opacity="0.36"/>
<circle cx="366.5" cy="261.4" r="11.0" fill="url(#mota)"/>
<circle cx="366.5" cy="261.4" r="2.0" fill="#e8f6ff" fill-opacity="0.88"/>
<circle cx="437.9" cy="69.7" r="8.0" fill="url(#mota)"/>
<circle cx="437.9" cy="69.7" r="1.5" fill="#e8f6ff" fill-opacity="0.59"/>
<circle cx="99.8" cy="252.7" r="11.0" fill="url(#mota)"/>
<circle cx="99.8" cy="252.7" r="2.0" fill="#e8f6ff" fill-opacity="0.84"/>
<circle cx="168.2" cy="332.3" r="11.5" fill="url(#mota)"/>
<circle cx="168.2" cy="332.3" r="2.1" fill="#e8f6ff" fill-opacity="0.62"/>
<circle cx="239.5" cy="279.5" r="12.5" fill="url(#mota)"/>
<circle cx="239.5" cy="279.5" r="2.3" fill="#e8f6ff" fill-opacity="0.37"/>
<circle cx="185.1" cy="287.7" r="11.6" fill="url(#mota)"/>
<circle cx="185.1" cy="287.7" r="2.1" fill="#e8f6ff" fill-opacity="0.68"/>
<circle cx="342.4" cy="140.9" r="8.1" fill="url(#mota)"/>
<circle cx="342.4" cy="140.9" r="1.5" fill="#e8f6ff" fill-opacity="0.51"/>
<circle cx="346.5" cy="50.2" r="8.3" fill="url(#mota)"/>
<circle cx="346.5" cy="50.2" r="1.5" fill="#e8f6ff" fill-opacity="0.89"/>
<circle cx="141.3" cy="356.4" r="15.4" fill="url(#mota)"/>
<circle cx="141.3" cy="356.4" r="2.8" fill="#e8f6ff" fill-opacity="0.39"/>
<circle cx="12.0" cy="142.4" r="10.7" fill="url(#mota)"/>
<circle cx="12.0" cy="142.4" r="2.0" fill="#e8f6ff" fill-opacity="0.40"/>
<circle cx="347.7" cy="283.0" r="9.1" fill="url(#mota)"/>
<circle cx="347.7" cy="283.0" r="1.7" fill="#e8f6ff" fill-opacity="0.70"/>
<circle cx="108.8" cy="359.9" r="6.7" fill="url(#mota)"/>
<circle cx="108.8" cy="359.9" r="1.2" fill="#e8f6ff" fill-opacity="0.75"/>
<circle cx="20.3" cy="395.2" r="11.1" fill="url(#mota)"/>
<circle cx="20.3" cy="395.2" r="2.0" fill="#e8f6ff" fill-opacity="0.62"/>
<circle cx="226.9" cy="313.9" r="11.1" fill="url(#mota)"/>
<circle cx="226.9" cy="313.9" r="2.0" fill="#e8f6ff" fill-opacity="0.82"/>
<circle cx="425.1" cy="83.2" r="12.6" fill="url(#mota)"/>
<circle cx="425.1" cy="83.2" r="2.3" fill="#e8f6ff" fill-opacity="0.83"/>
<circle cx="50.0" cy="222.0" r="9.3" fill="url(#mota)"/>
<circle cx="50.0" cy="222.0" r="1.7" fill="#e8f6ff" fill-opacity="0.87"/>
<circle cx="266.3" cy="50.0" r="16.2" fill="url(#mota)"/>
<circle cx="266.3" cy="50.0" r="3.0" fill="#e8f6ff" fill-opacity="0.47"/>
<circle cx="146.4" cy="234.6" r="8.8" fill="url(#mota)"/>
<circle cx="146.4" cy="234.6" r="1.6" fill="#e8f6ff" fill-opacity="0.55"/>
<circle cx="469.5" cy="463.2" r="14.2" fill="url(#mota)"/>
<circle cx="469.5" cy="463.2" r="2.6" fill="#e8f6ff" fill-opacity="0.81"/>
<circle cx="171.1" cy="322.6" r="11.1" fill="url(#mota)"/>
<circle cx="171.1" cy="322.6" r="2.0" fill="#e8f6ff" fill-opacity="0.36"/>
<circle cx="351.3" cy="167.7" r="6.6" fill="url(#mota)"/>
<circle cx="351.3" cy="167.7" r="1.2" fill="#e8f6ff" fill-opacity="0.39"/>
<circle cx="193.1" cy="47.0" r="6.2" fill="url(#mota)"/>
<circle cx="193.1" cy="47.0" r="1.1" fill="#e8f6ff" fill-opacity="0.65"/>
<circle cx="310.9" cy="119.7" r="9.6" fill="url(#mota)"/>
<circle cx="310.9" cy="119.7" r="1.7" fill="#e8f6ff" fill-opacity="0.56"/>
<circle cx="113.9" cy="376.5" r="8.7" fill="url(#mota)"/>
<circle cx="113.9" cy="376.5" r="1.6" fill="#e8f6ff" fill-opacity="0.41"/>
<circle cx="213.3" cy="473.9" r="12.3" fill="url(#mota)"/>
<circle cx="213.3" cy="473.9" r="2.2" fill="#e8f6ff" fill-opacity="0.36"/>
<circle cx="268.3" cy="273.9" r="6.6" fill="url(#mota)"/>
<circle cx="268.3" cy="273.9" r="1.2" fill="#e8f6ff" fill-opacity="0.64"/>
<circle cx="330.5" cy="449.1" r="13.5" fill="url(#mota)"/>
<circle cx="330.5" cy="449.1" r="2.5" fill="#e8f6ff" fill-opacity="0.46"/>
<circle cx="417.5" cy="104.2" r="8.1" fill="url(#mota)"/>
<circle cx="417.5" cy="104.2" r="1.5" fill="#e8f6ff" fill-opacity="0.69"/>
<circle cx="301.4" cy="170.9" r="8.7" fill="url(#mota)"/>
<circle cx="301.4" cy="170.9" r="1.6" fill="#e8f6ff" fill-opacity="0.83"/>
<circle cx="394.8" cy="110.3" r="15.1" fill="url(#mota)"/>
<circle cx="394.8" cy="110.3" r="2.8" fill="#e8f6ff" fill-opacity="0.68"/>
<circle cx="463.1" cy="39.0" r="10.6" fill="url(#mota)"/>
<circle cx="463.1" cy="39.0" r="1.9" fill="#e8f6ff" fill-opacity="0.55"/>
<circle cx="315.6" cy="127.9" r="6.5" fill="url(#mota)"/>
<circle cx="315.6" cy="127.9" r="1.2" fill="#e8f6ff" fill-opacity="0.82"/>
<circle cx="252.3" cy="405.5" r="11.4" fill="url(#mota)"/>
<circle cx="252.3" cy="405.5" r="2.1" fill="#e8f6ff" fill-opacity="0.68"/>
<circle cx="221.5" cy="142.5" r="15.9" fill="url(#mota)"/>
<circle cx="221.5" cy="142.5" r="2.9" fill="#e8f6ff" fill-opacity="0.58"/>
<circle cx="182.0" cy="372.4" r="14.9" fill="url(#mota)"/>
<circle cx="182.0" cy="372.4" r="2.7" fill="#e8f6ff" fill-opacity="0.85"/>
<circle cx="86.5" cy="407.5" r="13.0" fill="url(#ascua)"/>
<circle cx="86.5" cy="407.5" r="2.4" fill="#ffd8c0" fill-opacity="0.52"/>
<circle cx="334.8" cy="500.6" r="12.0" fill="url(#mota)"/>
<circle cx="334.8" cy="500.6" r="2.2" fill="#e8f6ff" fill-opacity="0.51"/>
<circle cx="280.5" cy="263.0" r="8.2" fill="url(#mota)"/>
<circle cx="280.5" cy="263.0" r="1.5" fill="#e8f6ff" fill-opacity="0.65"/>
<circle cx="158.5" cy="382.0" r="10.8" fill="url(#mota)"/>
<circle cx="158.5" cy="382.0" r="2.0" fill="#e8f6ff" fill-opacity="0.37"/>
<circle cx="297.0" cy="381.1" r="13.8" fill="url(#mota)"/>
<circle cx="297.0" cy="381.1" r="2.5" fill="#e8f6ff" fill-opacity="0.88"/>
<circle cx="195.5" cy="98.5" r="15.0" fill="url(#mota)"/>
<circle cx="195.5" cy="98.5" r="2.7" fill="#e8f6ff" fill-opacity="0.46"/>
<circle cx="393.2" cy="139.9" r="12.0" fill="url(#mota)"/>
<circle cx="393.2" cy="139.9" r="2.2" fill="#e8f6ff" fill-opacity="0.89"/>
<circle cx="185.6" cy="66.9" r="10.3" fill="url(#mota)"/>
<circle cx="185.6" cy="66.9" r="1.9" fill="#e8f6ff" fill-opacity="0.87"/>
<circle cx="250.7" cy="276.5" r="9.7" fill="url(#mota)"/>
<circle cx="250.7" cy="276.5" r="1.8" fill="#e8f6ff" fill-opacity="0.44"/>
<circle cx="92.7" cy="229.0" r="7.1" fill="url(#mota)"/>
<circle cx="92.7" cy="229.0" r="1.3" fill="#e8f6ff" fill-opacity="0.68"/>
<circle cx="247.0" cy="62.3" r="7.8" fill="url(#mota)"/>
<circle cx="247.0" cy="62.3" r="1.4" fill="#e8f6ff" fill-opacity="0.38"/>
<circle cx="286.4" cy="409.1" r="14.7" fill="url(#mota)"/>
<circle cx="286.4" cy="409.1" r="2.7" fill="#e8f6ff" fill-opacity="0.74"/>
<circle cx="379.2" cy="452.7" r="16.2" fill="url(#mota)"/>
<circle cx="379.2" cy="452.7" r="2.9" fill="#e8f6ff" fill-opacity="0.39"/>
<circle cx="11.1" cy="63.9" r="7.4" fill="url(#mota)"/>
<circle cx="11.1" cy="63.9" r="1.4" fill="#e8f6ff" fill-opacity="0.42"/>
<circle cx="287.3" cy="395.4" r="15.7" fill="url(#mota)"/>
<circle cx="287.3" cy="395.4" r="2.9" fill="#e8f6ff" fill-opacity="0.47"/>
<circle cx="41.7" cy="45.8" r="15.7" fill="url(#mota)"/>
<circle cx="41.7" cy="45.8" r="2.8" fill="#e8f6ff" fill-opacity="0.42"/>
<circle cx="280.2" cy="112.1" r="13.7" fill="url(#mota)"/>
<circle cx="280.2" cy="112.1" r="2.5" fill="#e8f6ff" fill-opacity="0.85"/>
</g>
<g>
<path d="M 95.1 229.7 L 98.7 222.8 L 102.6 216.0 L 107.0 209.4 L 111.6 202.9 L 116.7 196.7 L 122.1 190.6 L 127.8 184.8 L 133.9 179.2 L 140.3 173.8 L 147.0 168.7 L 154.0 163.9 L 161.3 159.4 L 168.8 155.2 L 176.7 151.3 L 184.7 147.8 L 193.0 144.6 L 201.5 141.8 L 210.2 139.3 L 219.1 137.3 L 228.1 135.6 L 237.2 134.4 L 246.5 133.6 L 255.9 133.2 L 265.3 133.2 L 274.8 133.7 L 284.3 134.6 L 293.8 136.0 L 303.3 137.8 L 312.7 140.0 L 322.1 142.7 L 331.4 145.9 L 340.6 149.5 L 349.6 153.5 L 358.4 157.9 L 367.1 162.8 L 375.6 168.1 L 383.8 173.9 L 391.7 180.0 L 399.4 186.5 L 406.8 193.4 L 487.9 219.4 L 422.3 234.0 L 407.5 295.5 L 381.4 234.6 L 373.3 232.4 L 365.3 230.3 L 357.5 228.5 L 349.7 226.8 L 342.0 225.3 L 334.4 224.0 L 326.9 222.8 L 319.5 221.7 L 312.1 220.8 L 304.9 220.0 L 297.7 219.2 L 290.6 218.6 L 283.6 218.1 L 276.6 217.7 L 269.6 217.3 L 262.8 217.0 L 255.9 216.8 L 249.1 216.7 L 242.3 216.6 L 235.5 216.6 L 228.8 216.6 L 222.0 216.7 L 215.3 216.9 L 208.5 217.1 L 201.8 217.4 L 195.0 217.7 L 188.2 218.1 L 181.3 218.5 L 174.4 219.1 L 167.5 219.6 L 160.6 220.3 L 153.5 221.0 L 146.5 221.8 L 139.3 222.6 L 132.1 223.6 L 124.9 224.6 L 117.6 225.7 L 110.2 226.9 L 102.7 228.3 L 95.1 229.7 Z" fill="url(#cuerpoA)"/>
<path d="M 95.1 229.7 L 98.7 222.8 L 102.6 216.0 L 107.0 209.4 L 111.6 202.9 L 116.7 196.7 L 122.1 190.6 L 127.8 184.8 L 133.9 179.2 L 140.3 173.8 L 147.0 168.7 L 154.0 163.9 L 161.3 159.4 L 168.8 155.2 L 176.7 151.3 L 184.7 147.8 L 193.0 144.6 L 201.5 141.8 L 210.2 139.3 L 219.1 137.3 L 228.1 135.6 L 237.2 134.4 L 246.5 133.6 L 255.9 133.2 L 265.3 133.2 L 274.8 133.7 L 284.3 134.6 L 293.8 136.0 L 303.3 137.8 L 312.7 140.0 L 322.1 142.7 L 331.4 145.9 L 340.6 149.5 L 349.6 153.5 L 358.4 157.9 L 367.1 162.8 L 375.6 168.1 L 383.8 173.9 L 391.7 180.0 L 399.4 186.5 L 406.8 193.4 L 487.9 219.4 L 422.3 234.0 L 407.5 295.5 L 381.4 234.6 L 373.3 232.4 L 365.3 230.3 L 357.5 228.5 L 349.7 226.8 L 342.0 225.3 L 334.4 224.0 L 326.9 222.8 L 319.5 221.7 L 312.1 220.8 L 304.9 220.0 L 297.7 219.2 L 290.6 218.6 L 283.6 218.1 L 276.6 217.7 L 269.6 217.3 L 262.8 217.0 L 255.9 216.8 L 249.1 216.7 L 242.3 216.6 L 235.5 216.6 L 228.8 216.6 L 222.0 216.7 L 215.3 216.9 L 208.5 217.1 L 201.8 217.4 L 195.0 217.7 L 188.2 218.1 L 181.3 218.5 L 174.4 219.1 L 167.5 219.6 L 160.6 220.3 L 153.5 221.0 L 146.5 221.8 L 139.3 222.6 L 132.1 223.6 L 124.9 224.6 L 117.6 225.7 L 110.2 226.9 L 102.7 228.3 L 95.1 229.7 Z" fill="#eafff2" fill-opacity="0.05"/>
<path d="M 95.1 229.7 L 98.7 222.8 L 102.6 216.0 L 107.0 209.4 L 111.6 202.9 L 116.7 196.7 L 122.1 190.6 L 127.8 184.8 L 133.9 179.2 L 140.3 173.8 L 147.0 168.7 L 154.0 163.9 L 161.3 159.4 L 168.8 155.2 L 176.7 151.3 L 184.7 147.8 L 193.0 144.6 L 201.5 141.8 L 210.2 139.3 L 219.1 137.3 L 228.1 135.6 L 237.2 134.4 L 246.5 133.6 L 255.9 133.2 L 265.3 133.2 L 274.8 133.7 L 284.3 134.6 L 293.8 136.0 L 303.3 137.8 L 312.7 140.0 L 322.1 142.7 L 331.4 145.9 L 340.6 149.5 L 349.6 153.5 L 358.4 157.9 L 367.1 162.8 L 375.6 168.1 L 383.8 173.9 L 391.7 180.0 L 399.4 186.5 L 406.8 193.4 L 487.9 219.4 L 422.3 234.0 L 407.5 295.5 L 381.4 234.6 L 373.3 232.4 L 365.3 230.3 L 357.5 228.5 L 349.7 226.8 L 342.0 225.3 L 334.4 224.0 L 326.9 222.8 L 319.5 221.7 L 312.1 220.8 L 304.9 220.0 L 297.7 219.2 L 290.6 218.6 L 283.6 218.1 L 276.6 217.7 L 269.6 217.3 L 262.8 217.0 L 255.9 216.8 L 249.1 216.7 L 242.3 216.6 L 235.5 216.6 L 228.8 216.6 L 222.0 216.7 L 215.3 216.9 L 208.5 217.1 L 201.8 217.4 L 195.0 217.7 L 188.2 218.1 L 181.3 218.5 L 174.4 219.1 L 167.5 219.6 L 160.6 220.3 L 153.5 221.0 L 146.5 221.8 L 139.3 222.6 L 132.1 223.6 L 124.9 224.6 L 117.6 225.7 L 110.2 226.9 L 102.7 228.3 L 95.1 229.7 Z" fill="none" stroke="url(#cantoA)" stroke-opacity="0.38" stroke-width="2.2"/>
<circle cx="138.1" cy="183.6" r="29.4" fill="url(#focoA)" opacity="0.50"/>
<circle cx="138.1" cy="183.6" r="16.6" fill="#eafff2" fill-opacity="0.42"/>
<circle cx="138.1" cy="183.6" r="5.9" fill="#ffffff" fill-opacity="0.88"/>
<circle cx="138.2" cy="217.9" r="24.2" fill="url(#focoA)"/>
<circle cx="138.2" cy="217.9" r="4.7" fill="#eafff2"/>
<circle cx="157.3" cy="213.8" r="34.1" fill="url(#focoA)"/>
<circle cx="157.3" cy="213.8" r="6.5" fill="#eafff2"/>
<circle cx="176.5" cy="210.6" r="42.8" fill="url(#focoA)"/>
<circle cx="176.5" cy="210.6" r="8.1" fill="#eafff2"/>
<circle cx="195.7" cy="208.0" r="49.6" fill="url(#focoA)"/>
<circle cx="195.7" cy="208.0" r="9.3" fill="#eafff2"/>
<circle cx="215.0" cy="206.3" r="53.9" fill="url(#focoA)"/>
<circle cx="215.0" cy="206.3" r="10.1" fill="#eafff2"/>
<circle cx="234.5" cy="205.3" r="55.4" fill="url(#focoA)"/>
<circle cx="234.5" cy="205.3" r="10.4" fill="#eafff2"/>
<circle cx="254.2" cy="205.1" r="53.9" fill="url(#focoA)"/>
<circle cx="254.2" cy="205.1" r="10.1" fill="#eafff2"/>
<circle cx="274.2" cy="205.8" r="49.6" fill="url(#focoA)"/>
<circle cx="274.2" cy="205.8" r="9.3" fill="#eafff2"/>
<circle cx="294.5" cy="207.5" r="42.8" fill="url(#focoA)"/>
<circle cx="294.5" cy="207.5" r="8.1" fill="#eafff2"/>
<circle cx="315.2" cy="210.4" r="34.1" fill="url(#focoA)"/>
<circle cx="315.2" cy="210.4" r="6.5" fill="#eafff2"/>
<circle cx="336.3" cy="214.4" r="24.2" fill="url(#focoA)"/>
<circle cx="336.3" cy="214.4" r="4.7" fill="#eafff2"/>
</g>
<g>
<path d="M 416.9 282.3 L 413.3 289.2 L 409.4 296.0 L 405.0 302.6 L 400.4 309.1 L 395.3 315.3 L 389.9 321.4 L 384.2 327.2 L 378.1 332.8 L 371.7 338.2 L 365.0 343.3 L 358.0 348.1 L 350.7 352.6 L 343.2 356.8 L 335.3 360.7 L 327.3 364.2 L 319.0 367.4 L 310.5 370.2 L 301.8 372.7 L 292.9 374.7 L 283.9 376.4 L 274.8 377.6 L 265.5 378.4 L 256.1 378.8 L 246.7 378.8 L 237.2 378.3 L 227.7 377.4 L 218.2 376.0 L 208.7 374.2 L 199.3 372.0 L 189.9 369.3 L 180.6 366.1 L 171.4 362.5 L 162.4 358.5 L 153.6 354.1 L 144.9 349.2 L 136.4 343.9 L 128.2 338.1 L 120.3 332.0 L 112.6 325.5 L 105.2 318.6 L 24.1 292.6 L 89.7 278.0 L 104.5 216.5 L 130.6 277.4 L 138.7 279.6 L 146.7 281.7 L 154.5 283.5 L 162.3 285.2 L 170.0 286.7 L 177.6 288.0 L 185.1 289.2 L 192.5 290.3 L 199.9 291.2 L 207.1 292.0 L 214.3 292.8 L 221.4 293.4 L 228.4 293.9 L 235.4 294.3 L 242.4 294.7 L 249.2 295.0 L 256.1 295.2 L 262.9 295.3 L 269.7 295.4 L 276.5 295.4 L 283.2 295.4 L 290.0 295.3 L 296.7 295.1 L 303.5 294.9 L 310.2 294.6 L 317.0 294.3 L 323.8 293.9 L 330.7 293.5 L 337.6 292.9 L 344.5 292.4 L 351.4 291.7 L 358.5 291.0 L 365.5 290.2 L 372.7 289.4 L 379.9 288.4 L 387.1 287.4 L 394.4 286.3 L 401.8 285.1 L 409.3 283.7 L 416.9 282.3 Z" fill="url(#cuerpoB)"/>
<path d="M 416.9 282.3 L 413.3 289.2 L 409.4 296.0 L 405.0 302.6 L 400.4 309.1 L 395.3 315.3 L 389.9 321.4 L 384.2 327.2 L 378.1 332.8 L 371.7 338.2 L 365.0 343.3 L 358.0 348.1 L 350.7 352.6 L 343.2 356.8 L 335.3 360.7 L 327.3 364.2 L 319.0 367.4 L 310.5 370.2 L 301.8 372.7 L 292.9 374.7 L 283.9 376.4 L 274.8 377.6 L 265.5 378.4 L 256.1 378.8 L 246.7 378.8 L 237.2 378.3 L 227.7 377.4 L 218.2 376.0 L 208.7 374.2 L 199.3 372.0 L 189.9 369.3 L 180.6 366.1 L 171.4 362.5 L 162.4 358.5 L 153.6 354.1 L 144.9 349.2 L 136.4 343.9 L 128.2 338.1 L 120.3 332.0 L 112.6 325.5 L 105.2 318.6 L 24.1 292.6 L 89.7 278.0 L 104.5 216.5 L 130.6 277.4 L 138.7 279.6 L 146.7 281.7 L 154.5 283.5 L 162.3 285.2 L 170.0 286.7 L 177.6 288.0 L 185.1 289.2 L 192.5 290.3 L 199.9 291.2 L 207.1 292.0 L 214.3 292.8 L 221.4 293.4 L 228.4 293.9 L 235.4 294.3 L 242.4 294.7 L 249.2 295.0 L 256.1 295.2 L 262.9 295.3 L 269.7 295.4 L 276.5 295.4 L 283.2 295.4 L 290.0 295.3 L 296.7 295.1 L 303.5 294.9 L 310.2 294.6 L 317.0 294.3 L 323.8 293.9 L 330.7 293.5 L 337.6 292.9 L 344.5 292.4 L 351.4 291.7 L 358.5 291.0 L 365.5 290.2 L 372.7 289.4 L 379.9 288.4 L 387.1 287.4 L 394.4 286.3 L 401.8 285.1 L 409.3 283.7 L 416.9 282.3 Z" fill="#eafff2" fill-opacity="0.05"/>
<path d="M 416.9 282.3 L 413.3 289.2 L 409.4 296.0 L 405.0 302.6 L 400.4 309.1 L 395.3 315.3 L 389.9 321.4 L 384.2 327.2 L 378.1 332.8 L 371.7 338.2 L 365.0 343.3 L 358.0 348.1 L 350.7 352.6 L 343.2 356.8 L 335.3 360.7 L 327.3 364.2 L 319.0 367.4 L 310.5 370.2 L 301.8 372.7 L 292.9 374.7 L 283.9 376.4 L 274.8 377.6 L 265.5 378.4 L 256.1 378.8 L 246.7 378.8 L 237.2 378.3 L 227.7 377.4 L 218.2 376.0 L 208.7 374.2 L 199.3 372.0 L 189.9 369.3 L 180.6 366.1 L 171.4 362.5 L 162.4 358.5 L 153.6 354.1 L 144.9 349.2 L 136.4 343.9 L 128.2 338.1 L 120.3 332.0 L 112.6 325.5 L 105.2 318.6 L 24.1 292.6 L 89.7 278.0 L 104.5 216.5 L 130.6 277.4 L 138.7 279.6 L 146.7 281.7 L 154.5 283.5 L 162.3 285.2 L 170.0 286.7 L 177.6 288.0 L 185.1 289.2 L 192.5 290.3 L 199.9 291.2 L 207.1 292.0 L 214.3 292.8 L 221.4 293.4 L 228.4 293.9 L 235.4 294.3 L 242.4 294.7 L 249.2 295.0 L 256.1 295.2 L 262.9 295.3 L 269.7 295.4 L 276.5 295.4 L 283.2 295.4 L 290.0 295.3 L 296.7 295.1 L 303.5 294.9 L 310.2 294.6 L 317.0 294.3 L 323.8 293.9 L 330.7 293.5 L 337.6 292.9 L 344.5 292.4 L 351.4 291.7 L 358.5 291.0 L 365.5 290.2 L 372.7 289.4 L 379.9 288.4 L 387.1 287.4 L 394.4 286.3 L 401.8 285.1 L 409.3 283.7 L 416.9 282.3 Z" fill="none" stroke="url(#cantoB)" stroke-opacity="0.38" stroke-width="2.2"/>
<circle cx="373.9" cy="328.4" r="29.4" fill="url(#focoB)" opacity="0.50"/>
<circle cx="373.9" cy="328.4" r="16.6" fill="#eafff2" fill-opacity="0.42"/>
<circle cx="373.9" cy="328.4" r="5.9" fill="#ffffff" fill-opacity="0.88"/>
<circle cx="373.8" cy="294.1" r="24.2" fill="url(#focoB)"/>
<circle cx="373.8" cy="294.1" r="4.7" fill="#eafff2"/>
<circle cx="354.7" cy="298.2" r="34.1" fill="url(#focoB)"/>
<circle cx="354.7" cy="298.2" r="6.5" fill="#eafff2"/>
<circle cx="335.5" cy="301.4" r="42.8" fill="url(#focoB)"/>
<circle cx="335.5" cy="301.4" r="8.1" fill="#eafff2"/>
<circle cx="316.3" cy="304.0" r="49.6" fill="url(#focoB)"/>
<circle cx="316.3" cy="304.0" r="9.3" fill="#eafff2"/>
<circle cx="297.0" cy="305.7" r="53.9" fill="url(#focoB)"/>
<circle cx="297.0" cy="305.7" r="10.1" fill="#eafff2"/>
<circle cx="277.5" cy="306.7" r="55.4" fill="url(#focoB)"/>
<circle cx="277.5" cy="306.7" r="10.4" fill="#eafff2"/>
<circle cx="257.8" cy="306.9" r="53.9" fill="url(#focoB)"/>
<circle cx="257.8" cy="306.9" r="10.1" fill="#eafff2"/>
<circle cx="237.8" cy="306.2" r="49.6" fill="url(#focoB)"/>
<circle cx="237.8" cy="306.2" r="9.3" fill="#eafff2"/>
<circle cx="217.5" cy="304.5" r="42.8" fill="url(#focoB)"/>
<circle cx="217.5" cy="304.5" r="8.1" fill="#eafff2"/>
<circle cx="196.8" cy="301.6" r="34.1" fill="url(#focoB)"/>
<circle cx="196.8" cy="301.6" r="6.5" fill="#eafff2"/>
<circle cx="175.7" cy="297.6" r="24.2" fill="url(#focoB)"/>
<circle cx="175.7" cy="297.6" r="4.7" fill="#eafff2"/>
</g>
</svg>
